<?xml version="1.0" encoding="UTF-8"?>
<svg viewBox="0 0 3594.8586 3722.521" xmlns="http://www.w3.org/2000/svg">
 <g transform="translate(2560.5 2332.5)">
  <path d="m-2560.5-2332.3h3594.7v3722.3h-3594.7z" fill="#fff"/>
  <path d="m-2110.9-2332.4h449.46v465.33h-449.46z"/>
  <path d="m-1212-2332.4h449.46v465.33h-449.46z"/>
  <path d="m-313.57-2332.5h449.46v465.33h-449.46z"/>
  <path d="m584.87-2332.5h449.46v465.33h-449.46z"/>
  <path d="m-2560.4-1867.1h449.46v465.33h-449.46z"/>
  <path d="m-1661.5-1867.1h449.46v465.33h-449.46z"/>
  <path d="m-763.04-1867.1h449.46v465.33h-449.46z"/>
  <path d="m135.84-1867.1h449.46v465.33h-449.46z"/>
  <path d="m-2110.9-1401.8h449.46v465.33h-449.46z"/>
  <path d="m-1212.1-1401.8h449.46v465.33h-449.46z"/>
  <path d="m-313.62-1401.8h449.46v465.33h-449.46z"/>
  <path d="m584.82-1401.8h449.46v465.33h-449.46z"/>
  <path d="m-2560.5-936.48h449.46v465.33h-449.46z"/>
  <path d="m-1661.6-936.47h449.46v465.33h-449.46z"/>
  <path d="m-763.12-936.48h449.46v465.33h-449.46z"/>
  <path d="m135.77-936.48h449.46v465.33h-449.46z"/>
  <path d="m-2111-471.15h449.46v465.33h-449.46z"/>
  <path d="m-1212.1-471.15h449.46v465.33h-449.46z"/>
  <path d="m-313.68-471.16h449.46v465.33h-449.46z"/>
  <path d="m584.76-471.16h449.46v465.33h-449.46z"/>
  <path d="m-2560.5-5.8736h449.46v465.33h-449.46z"/>
  <path d="m-1661.6-5.8591h449.46v465.33h-449.46z"/>
  <path d="m-763.17-5.8737h449.46v465.33h-449.46z"/>
  <path d="m135.71-5.8739h449.46v465.33h-449.46z"/>
  <path d="m-2111.1 459.45h449.46v465.33h-449.46z"/>
  <path d="m-1212.2 459.45h449.46v465.33h-449.46z"/>
  <path d="m-313.74 459.44h449.46v465.33h-449.46z"/>
  <path d="m584.7 459.44h449.46v465.33h-449.46z"/>
  <path d="m-2560.5 924.72h449.46v465.33h-449.46z"/>
  <path d="m-1661.6 924.73h449.46v465.33h-449.46z"/>
  <path d="m-763.16 924.72h449.46v465.33h-449.46z"/>
  <path d="m135.73 924.72h449.46v465.33h-449.46z"/>
 </g>
</svg>
